<svg xmlns="http://www.w3.org/2000/svg" width="320" height="320" viewBox="0 0 320 320" role="img" aria-label="QRIS placeholder">
  <rect width="320" height="320" fill="#ffffff"/>
  <rect x="8" y="8" width="304" height="304" rx="12" fill="none" stroke="#0B3B36" stroke-width="2" stroke-dasharray="6 6"/>
  <!-- Fake finder patterns to read as a QR placeholder -->
  <g fill="#0B3B36">
    <rect x="40" y="40" width="56" height="56" rx="6"/>
    <rect x="52" y="52" width="32" height="32" rx="3" fill="#ffffff"/>
    <rect x="60" y="60" width="16" height="16" fill="#0B3B36"/>
    <rect x="224" y="40" width="56" height="56" rx="6"/>
    <rect x="236" y="52" width="32" height="32" rx="3" fill="#ffffff"/>
    <rect x="244" y="60" width="16" height="16" fill="#0B3B36"/>
    <rect x="40" y="224" width="56" height="56" rx="6"/>
    <rect x="52" y="236" width="32" height="32" rx="3" fill="#ffffff"/>
    <rect x="60" y="244" width="16" height="16" fill="#0B3B36"/>
  </g>
  <g fill="#0B3B36" opacity="0.85">
    <rect x="120" y="48" width="12" height="12"/><rect x="148" y="48" width="12" height="12"/><rect x="176" y="60" width="12" height="12"/>
    <rect x="120" y="76" width="12" height="12"/><rect x="160" y="84" width="12" height="12"/>
    <rect x="48" y="120" width="12" height="12"/><rect x="76" y="132" width="12" height="12"/><rect x="120" y="120" width="12" height="12"/>
    <rect x="160" y="120" width="12" height="12"/><rect x="200" y="120" width="12" height="12"/><rect x="240" y="132" width="12" height="12"/>
    <rect x="132" y="160" width="12" height="12"/><rect x="172" y="160" width="12" height="12"/><rect x="212" y="172" width="12" height="12"/>
    <rect x="120" y="200" width="12" height="12"/><rect x="160" y="212" width="12" height="12"/><rect x="200" y="200" width="12" height="12"/>
    <rect x="240" y="200" width="12" height="12"/>
  </g>
  <text x="160" y="172" text-anchor="middle" font-family="system-ui, sans-serif" font-size="16" font-weight="700" fill="#C9A24B">QRIS</text>
  <text x="160" y="300" text-anchor="middle" font-family="system-ui, sans-serif" font-size="11" fill="#6B7270">Placeholder — replace with real QRIS</text>
</svg>
