<svg xmlns="http://www.w3.org/2000/svg" width="32" height="32" viewBox="0 0 32 32">
  <rect width="32" height="32" rx="7" fill="#0B3B36"/>
  <g transform="translate(4 4)" fill="none" stroke="#C9A24B" stroke-width="1.6" stroke-linecap="round" stroke-linejoin="round">
    <path d="M2 22h20" />
    <path d="M5 22v-9" /><path d="M4 13a1 1 0 0 1 2 0" /><path d="M5 13V11" />
    <path d="M19 22v-9" /><path d="M18 13a1 1 0 0 1 2 0" /><path d="M19 13v-2" />
    <path d="M8 22v-8" /><path d="M16 22v-8" />
    <path d="M8 14a4 4 0 0 1 8 0" />
    <path d="M12 10V8" />
    <path d="M11 22v-3a1 1 0 0 1 2 0v3" />
  </g>
</svg>
